/* XPM */
static char*energy[]={
"16 16 54 1",
"Z c #10398c",
"A c #fff75a",
"C c #debd4a",
"o c #427b4a",
"J c #214a94",
"D c #294a94",
"v c #214aa5",
"K c #396b73",
"Q c #847331",
"u c #2952ad",
"d c #5284c6",
"W c #ffef42",
"h c #63ad31",
"M c #10319c",
"T c #184a84",
"n c #316b63",
"N c #ffef7b",
"q c #ffef8c",
"t c #215aa5",
"l c #4a944a",
"V c #211800",
"s c #315aa5",
"# c #4273b5",
"P c #fff773",
"S c #949cce",
"F c #296373",
"I c #cead21",
"p c #428452",
"x c #398463",
"g c #4aa531",
"U c #ffe731",
"i c #428463",
"y c #d6bd31",
"G c #7b6308",
"X c #ffde21",
"e c #317b8c",
". c None",
"E c #c6ad4a",
"Y c #083194",
"r c #3163ad",
"c c #42848c",
"L c #183194",
"k c #396bb5",
"H c #ffe76b",
"B c #317352",
"m c #317b5a",
"O c #fff77b",
"w c #397363",
"R c #18429c",
"z c #ffde39",
"j c #529c39",
"a c #5ab521",
"b c #63b521",
"f c #5a9c4a",
"................",
"................",
"................",
"................",
"................",
".....#ab##cd....",
"...efgh#ijjjfj..",
"..kllmkknolpqrr.",
"..stuuvwxyzABAC.",
".DuEFnvGHIJuKLuD",
".MNOvPQMDHDvvPRR",
"SLMRMTMUMVWVMXLL",
"YYYLLLZYLLYZZLYY",
"................",
"................",
"................"};
