/* XPM */
static const char *bat3[] = {
/* width height num_colors chars_per_pixel */
"   147   108       54            1",
/* colors */
". c #010101",
"# c #1c1c1c",
"a c #a7a7a7",
"b c #ffffff",
"c c #9a9a9a",
"d c #dddddd",
"e c #d3d3d3",
"f c #3f3f3f",
"g c #f5f5f5",
"h c #bababa",
"i c #9e9e9e",
"j c #ededed",
"k c #121212",
"l c #4e4e4e",
"m c #919191",
"n c #5d5d5d",
"o c #f2f2f2",
"p c #797979",
"q c #c4c4c4",
"r c #767676",
"s c #0e0e0e",
"t c #2a2a2a",
"u c #888888",
"v c #2e2e2e",
"w c #434343",
"x c #969696",
"y c #b2b2b2",
"z c #050505",
"A c #acacac",
"B c #272727",
"C c #d9d9d9",
"D c #6b6b6b",
"E c #474747",
"F c #090909",
"G c #8f8f8f",
"H c #373737",
"I c #646464",
"J c #bebebe",
"K c #575757",
"L c #cecece",
"M c #323232",
"N c #181818",
"O c #7e7e7e",
"P c #818181",
"Q c #cacaca",
"R c #e1e1e1",
"S c #5a5a5a",
"T c #494949",
"U c #a3a3a3",
"V c #3a3a3a",
"W c #878481",
"X c #707070",
"Y c #ff0000",
"Z c #ff7777",
/* pixels */
"...................................................................................................................................................",
"...................................................................................................................................................",
"...................................................................................................................................................",
"...................................................................................................................................................",
"...................................................................................................................................................",
"...................................................................................................................................................",
"...................................................................................................................................................",
"...................................................................................................................................................",
"....................................#abc...........................................................................................................",
"...................................#def#...........................................................................................................",
"...................................gh..............................................................................................................",
"..................................ijk..............................................................................................................",
".................................lbm...............................................................................................................",
".................................mbg#..............................................................................................................",
"................................#ndbof....#pqrs....................................................................................................",
"...............................tbc.ujbv..wgexbu....................................................................................................",
"...............................yqt...ubpzjA..#B....................................................................................................",
"..............................zCbjt...ibbbt........................................................................................................",
"...............................cbD.....rbbB...............................................................EDF......................................",
"...............................BbbG....HbbB...............................................................bbq......................................",
"................................FICbJrKLbbB...............................................................MDbB.....................................",
"...................................IAjjjbbM................................................................FbK.....................................",
".......................................#bbr................................................................NbK...t.................................",
".......................................zdbx.........................................................BqbjbO.Kbz..Pq.................................",
"........................................qbq........................................................NjQBkDbtqA.zPjB.................................",
"........................................cbRF.......................................................pgk...eCbnDRjv..................................",
"........................................lbgB.......................................................uQ....ybbbbP....................................",
"........................................BbgB.......................................................vS...Ibbbdt.....................................",
".........................................bbr............................................................cbbbK......................................",
".........................................obJ............................................................#beR.#k....................................",
".........................................qbb............................................................iimj#bQ....................................",
".........................................qbbT..........................................................Ed.KgkUn....................................",
".........................................qgqQ..........................................................eVEfbB......................................",
".........................................ybpbB........................................................rU.UkoI......................................",
".........................................ybKbU.......................................................tjk.yWLA......................................",
".........................................rCEcbV.....................................................sLlWzxWpo......................................",
".........................................hcrWhe.....................................................icWWNrWHbk.....................................",
".........................................eaUWtba...................................................phWWWHuWWoO.....................................",
".........................................CPyWWKbyz................................................IesWWWImWWPRz....................................",
".........................................bliWWWXbJs..............................................KRNWWWWxuWWBbM....................................",
".........................................bNVfWWWHbQ#............................................vjTWWWWWhrWWWRu....................................",
"........................................#ozFlWWWWtdgK.................F........................MjfWWWWWVccWWWDoz...................................",
"........................................KqWWfzWWWWFQbu...............Nhk......................HdTWWWWWWilDVWWBoX...................................",
"........................................imWWKsWzWWWzubJB...........zH.hV.....................tjlWWWWWWWjT#GWWWubF..................................",
"........................................RwFMKsWNzWWWWIobxN........#dgLup....................ljwWWWWWWWVoBWmtWWkRU..................................",
".......................................#bWWWH#WWWWWWWWBhbjI.......FMkxgq...................XjwWWWWWWWWumFWlGWWWKbn.................................",
".......................................XCWWWHtWWWWWWWWWWHdbhB.........cb..................PRVWWWWWWWWzaDWWWyBWWWmbB................................",
".......................................CIWkFHHWWkBWWWWWWWzpgbi#.......Fbl......#UN......kAykWWWWWWWWWfrrWWW#OWWWWqd................................",
"......................................ERzWWW#SWWWWzWWWWWWWWNebgrz......aA....NnQbf.....#LOWWWWWWWWWWWXMKWWWWmKWWWBba...............................",
"......................................QuWWWWzVWWWzHWWWWWWWWWWTebdV.....ujz.vqbbbm.....EbnWWWWWWWWWWWNmVDWWWWWu#WWWBbG..............................",
"......................................bkWWWWWlWWWW#NWWWWWWWWWWWTqbfFVB.ObtDbbbgX.....uCtWWWWWWWWWWWWKEHtWWWWWtAWWWWrbU.............................",
".....................................uhWWB#WWnFWWWWHzWWWWWWWWWWWW#SCbjxQbLbbbbRs...khh#WWWWWWWWWWWWWxFS#WWWWWWXrWWWWObS............................",
"....................................FoBWWKsWWVsWWWWk#WWWWWWWWWWWWVbeybbbbbbbYubA.#ibpWWWWWWWWWWWWWWlm.xWWWWWWWWHmNWWWrbA...........................",
"....................................rhWWFVWWWBBWWWWWW#WWW#SUaaIwBCRYYYNhbbbYY.ibpArkWWWWWWWWWWWWWWWc#.mWWWWWWWWWnhKWWWVgLN.........................",
"...................................keBWFIWWWWNwWWWWWWT#WsjbbbbbbjbbYZZYpYZZYY.yjsWWWWWWWWWWWWWWWWWNcWkXWWWWWWWWWW#qIWWWwbjE........................",
"...................................ymWWnHWWWWWBWWWWWWWBWPbl....vwogYZZYhYZZYY.CqWWWWWWWWWWWWWWWWWWDTWBIWWWWWWWWWWWWOGFWWzdbu.......................",
"..................................#gNW#fWWWWWWwWWWWWWWW#bU.......TbgYYYYbYYYYYbTWWWWWWWWWWWWWWWWWNhWWHfWWWWWWWWWWWWWTJwWWWubew.....................",
"..................................JXWWlWWWWWWWnWWWWWWWWkbI........pbbbbejbjbbbuHSkWWWWWWWWWWWWWWWlDWWKEWWWWWWWWWWWWWWNOuFWWMjbu....................",
".................................KgWWINWWWWWWWlWWWWWWWWzbn........EbhbQnCjLbrNAbbbbaBWWWWWWWWWWWFAsWWIMWWWWWWWWWWWWWWWWBOPfsWrbqM..................",
"................................NjlWktWWWWWWWWtFWWzMPdmwbm........BjIbw.qaqA..HwslxbbTWWWWWWWWWWuwWWWS#WWWWWWWWWWWWWWWWWWBBsWWvCbI.................",
"................................qA.#SWWWWWWWWW#WWWJbbbbbbdF.......KbKbB.bOeP.......BjgBWWWWWWWWkUWWWWlkWWWWWWWWWWWWWWWWWWWWWsFFBibu................",
"...............................Uh.kEWWWWWWWWWWKkWJbnHhuobbK.......ngfjF.bSdT........tbeWWWWWWWWABWWWWmzWWWWWWWWWWWWWWWWkTcqjbbbbbbbu...............",
"..............................AjwPhbRhHWWWWWWWlzKbS....Ibbe.......njBjF.bvjE.........IbTWWWWWWTpWWWWWIWWWWWWWWWWWWWWzEqbjqPXvNkKDqbbS..............",
"...........................snAbbbbJAygbmFWWWWWl.he......EKM.......njvq..bvjz..........dCzWWWWWA#WWWW#uWWWWWWWWWWWWWSCbmEs.........MrRz.............",
"...........................BbbbUv.....IbdWWWWWT#bn................IewJ..bvo...........nblWWWWppWWWWWMSWWWWWWWWWWWXjjPN..............TB.............",
"............................rdM........BRdHWWWwljs................Dmuy..jtb...........FbpWWWkazWWWWWnKWWWWWWWWWwdbx................................",
".............................#..........NQoMWWfce.................rGGI..jvd............CqWWWmVWWWWWWuHWWWWWWWkAbxB.................................",
"..........................................hbWWBRU.................hmqT.wRXq............LCWWMaWWWWWWWiBWWWWWWHbRB...................................",
"..........................................zheF.er.................hcRz.wdiO............GdWWDHWWWWWWWpzWWWWWrbiF....................................",
"...........................................Nbm.CS.................hhbz.wjdr............AoW#rWWWWWWWzcWWWWWXbO......................................",
"............................................EbHj#.................yLe..fjdV............eqWOVWWWWWWWtIWWWWXbI.......................................",
".............................................iRbl.................AbQ..fbbt............bPWwWWWWWWWWSnWWWXbH........................................",
".............................................#jbr.................LbA..KboN...........MbEwtWFsWWWWWO#WWDbE.........................................",
"..............................................ObD.................bbX..xbe............cbjbbbbbmWWWWXzWtbp..........................................",
"..............................................Fbi.................bbV..xbx............njG###BmbqWWWK.zju...........................................",
"...............................................iR................vbbN..ebD.............z......ObDWWrFuoz...........................................",
"...............................................VbS...............Vbd...CbM.....................ib#WzVbV............................................",
"...............................................FbC...............HbQ...Cbt.....................kbPWWei.............................................",
"................................................db#..............fbm...djz......................aoFMbB.............................................",
"................................................ubP...............ec...djF......................BbvUh..............................................",
"................................................fbj...............qc..zjjs.......................oUoV..............................................",
"................................................BgbB..............TB...Kw........................Abj...............................................",
".................................................hbI.............................................ibA...............................................",
".................................................lby.............................................ibl...............................................",
"..................................................RRz............................................Ub#...............................................",
"..................................................Xbm............................................QL................................................",
"..................................................#bbw...........................................ba................................................",
"...................................................jy...........................................BbX................................................",
"...................................................ju...........................................KbE................................................",
"...................................................AbH..........................................fbT................................................",
"...................................................abH..........................................MbT................................................",
"...................................................vX...........................................#bI................................................",
".................................................................................................Ou................................................",
"...................................................................................................................................................",
"...................................................................................................................................................",
"...................................................................................................................................................",
"...................................................................................................................................................",
"...................................................................................................................................................",
"...................................................................................................................................................",
"...................................................................................................................................................",
"...................................................................................................................................................",
"...................................................................................................................................................",
"...................................................................................................................................................",
"...................................................................................................................................................",
"...................................................................................................................................................",
"...................................................................................................................................................",
"...................................................................................................................................................",
"..................................................................................................................................................."
};
