/* XPM */
static const char *bat4[] = {
/* width height num_colors chars_per_pixel */
"   147   108       54            1",
/* colors */
". c #010101",
"# c #aeaeae",
"a c #292929",
"b c #7a7a7a",
"c c #ffffff",
"d c #0c0c0c",
"e c #646464",
"f c #737373",
"g c #c8c8c8",
"h c #c4c4c4",
"i c #101010",
"j c #9d9d9d",
"k c #e4e4e4",
"l c #f2f2f2",
"m c #a3a3a3",
"n c #909090",
"o c #d7d7d7",
"p c #dadada",
"q c #171717",
"r c #3d3d3d",
"s c #989898",
"t c #8b8b8b",
"u c #a9a9a9",
"v c #202020",
"w c #a6a6a6",
"x c #5f5f5f",
"y c #868686",
"z c #e9e9e9",
"A c #dfdfdf",
"B c #cfcfcf",
"C c #060606",
"D c #d2d2d2",
"E c #575757",
"F c #252525",
"G c #b1b1b1",
"H c #4c4c4c",
"I c #484848",
"J c #b5b5b5",
"K c #434343",
"L c #1b1b1b",
"M c #6e6e6e",
"N c #878481",
"O c #2d2d2d",
"P c #bcbcbc",
"Q c #7e7e7e",
"R c #5b5b5b",
"S c #313131",
"T c #6b6b6b",
"U c #525252",
"V c #f0f0f0",
"W c #ff0000",
"X c #ff7777",
"Y c #f8f8f8",
"Z c #383838",
/* pixels */
".............................................................................#a....................................................................",
"............................................................................bcd....................................................................",
"...........................................................................ecfeghei................................................................",
"...........................................................................jcklmnopa...............................................................",
"......................................................................qrbstuccv...fw...............................................................",
"...................................................................dxocccccccc.....................................................................",
"..................................................................yzA#ccckgBccjC...................................................................",
"................................................................rDcEFpcGH...rmcI...................................................................",
"..............................................................apcJ.Fckr..i....Bt...................................................................",
".............................................................ycuaKioki..LDov..Dy...................................................................",
"............................................................MceNaKBkq....rlB..By...................................................................",
"...........................................................vcnNNHbcO.......cr.zb...................................................................",
"...........................................................DmNNIncb.....bBPcf.cr...................................................................",
"..........................................................EciNNQzB......JccccJzL...................................................................",
".........................................................vcHNNIwla...Csccccccczr...................................................................",
".........................................................PoNNCHzn....HctrlccccclK..................................................................",
"........................................................bcrNNRnca....sl.rcxvRlcccb.................................................................",
".......................................................dceNNSeBG.....Jj.el...izzncsC...............................................................",
".......................................................ykNNiFrcr.....fu.Mg....akBwchi..............................................................",
"......................................................KcrNNLqBz......el.fs.....alzycla.............................................................",
".....................................................dztNNO.Ocr......vlixJ......ihkHllK............................................................",
".....................................................jpiNLH.mo........#bvk.......vzyCpcR...........................................................",
"....................................................rcvNCr.icM........ScCkS.......Ic.qwcGq.........................................................",
"...................................................vlRNNii.Pkd.........r.My.......dlKNNrlcua.......................................................",
"...................................................BmNNLiNLcb............CF........nPNNNLQcc#a.....................................................",
"..................................................GBCNNaCNbcS......................vcqNNNNiylcsr...................................................",
".................................................fkdNNNNNNgz........................DjNNNNNNNEAckeL................................................",
"................................................McrNNLdNNrcG........................TcHNNNNNNNCIwccPTFv............................................",
"...............................................rcUNNvaNNNbce........................ic#NNNNNNNNNNqMolcczosKO.......................................",
"..............................................FcbNNdvNNNNbcL.........................bcNNNNidNNNNNNNNiERsBcccDGTvi.................................",
".............................................OzyNNCICNNNNnc..........................LcKNNNCNNNNNNNNNNNNNNvKfjAcccDtO..............................",
"............................................FlnNNNKvNNNNNPB...........................h#NNNNNNNNNNNNNNNNNNNNNNNNIyglczmIi..........................",
"...........................................alxNNNdLNNNNNNcm...........................nzNNNNNNNNNqNNNNNNNNNNNNNNNNNNEJcccPeKr......................",
"..........................................ezHNNNNNNNNNNNicm...........................UzNNNNNNNNNdNNNNNNNNNNNNNNCryAllccccccAd.....................",
"........................................igkONNNdNNNNNNNNrcn...........................EzNNNNNNNNNNNNNNNNNNNNNNrmcccgQbbbfspcs......................",
".......................................rz#iNNNFONNNNNNNNacH...........................UlNNNNNNNNNNNNNNNNNNNiTzcznr.........v.......................",
"......................................EzQNNNCSiNNNNNNNNNNct...........................HcvNNNNNNNNNNNNNNNNNaDc#Kd...................................",
"....................................CwzONNNKrNNNNNNNNNNNN#u...........................ecFNNNNNNNNNNNNNNNNRczS......................................",
"...................................iBJNNNqxrNNNNNNNNNNNNNu#...........................GBNNNNNNNNNNNNNNNdscwC.......................................",
"..................................OknNNCLiiNNNNNNNNNNNNNNMz...........................BbaNNNNNNNNNNNNNNscQ.........................................",
".................................ecINNNNCNNNNNNNNNNNNNNNNHc..........................qcrHNNNNNNNNNNNNNHcf..........................................",
"................................PArNNNNNNNNNNNNNNNNNNNNNNUcd.........................rcNKNNNNNNNNNNNNacs...........................................",
"..............................iPALNNNNNNNNNNNNNNNNNNNNNNNFcS.........................bpNrNNNNNNNNNNNNGD............................................",
".............................KowNNNSrrrqNNNNNNNNNNNNNNNNNdlb.........................zbNeCNNNNNNNNNNEcO............................................",
"..........................FUwcksgccccVcclnUiNNNNNNNNNNNNNN#D........................ecONRdNNNNNNNNNNzP.............................................",
"..........................zcccccDeHvLiFHsDczrNNNNNNNNNNNNNIcC.......................oJNNKNNNNNNNNNNHcr.............................................",
"..........................BcgMrd..........rwcsNNNNNNNNNNNNdcr........rL............vcHNiHNNNNNNNNNNnlC.............................................",
"...........................i................Uc#NNNNNNNNNNNNgG.......QccK...........scdNiUNNNNNNNNNNpj..............................................",
".............................................fcUNNNNNNNNNNNyzC......JRbp..........rcRNNvxNNNNNNNNNice..............................................",
"..............................................nciNNNNNNNNNNrcH........ici......jM.ggNNNrSNNNNNNNNNicv..............................................",
"...............................................zyNNNNNNNNNNNBp.........gf....vgcsecaNNNHFNNNNNNCCNRci..............................................",
"...............................................bzNNNNNNNvNNNKcU........eP...blclHcnNNNNEiNNNNNNdFNeci..............................................",
"...............................................vcrNNNNNNLNNNNscK....vr.Sz.vpccuSpkdNNNNyiNNNNNNNCNeci..............................................",
"................................................psNNNNNNLNNNNNJca..KcczycmcccBihcLNNNNNQNNNNNNNNNNUcL..............................................",
"................................................elNNNNNNCNNNNNNzodFzkekcccccczkcxNNNNNNxNNSMGPmevNIcU..............................................",
"................................................LceNNNNNNNNNNNNIclzzWiikcccBcccO.UnDjbRninccczAccPIcy..............................................",
".................................................mpNNNNNNNNNNNNNLycWWWWQccWWKMchockPlcccccPr...KscccpC.............................................",
".................................................rciNNNNSCNNNNNNNrlWXXWmcWXXW.clnS..dSpccy.......rpccr.............................................",
"..................................................zeNNNNvNNNNNNNNrlWXXWcWWXXWMcU......nckC........dGcs.............................................",
"..................................................nDNNNNiCNCehcJN.lWWWWPWWWWWcm.......CnI...........ocH............................................",
"..................................................xcqNNNC.rpcljyC.RcYccjjczzcj......................rclL...........................................",
"..................................................vcSNNNNLlcr......dJylHQcAcT.......................CpcG...........................................",
"...................................................AnNNNNsce........suA.Rcuci........................tcy...........................................",
"...................................................wPNNNNscO........sAA.RcezC.........................v............................................",
"...................................................bcNNNNKcU........HcA.vzElC......................................................................",
"...................................................ZcOJlclc#........rcA.vzEld......................................................................",
"...................................................ilccAmpcca.......ScA.vzRlC......................................................................",
"....................................................BcR...Mcpi.......c#.FzIld......................................................................",
"....................................................Pg....dccr.......cA.vlrlC......................................................................",
"...................................................ilu.....mu........ck.Llvld......................................................................",
"...................................................FcJ...............Bk.dkqld......................................................................",
"...................................................Kcy...............Pz..pqld......................................................................",
"...................................................Kcy...............Bz..DLld......................................................................",
"...................................................xcy...............Jz..Dqzd......................................................................",
"...................................................Kcy...............Pz..oyzd......................................................................",
"...................................................Kcy...............Jcv.DGzC......................................................................",
"...................................................Kcy...............fcF.ucAd......................................................................",
"...................................................rct...............Rcr.bckd......................................................................",
"...................................................ecli..............xcM.fczi......................................................................",
"...................................................Mcl...............OcM.accq......................................................................",
"....................................................rH...............xcn.icYi......................................................................",
".....................................................................ape.CAld......................................................................",
"..........................................................................rf.......................................................................",
"...................................................................................................................................................",
"...................................................................................................................................................",
"...................................................................................................................................................",
"...................................................................................................................................................",
"...................................................................................................................................................",
"...................................................................................................................................................",
"...................................................................................................................................................",
"...................................................................................................................................................",
"...................................................................................................................................................",
"...................................................................................................................................................",
"...................................................................................................................................................",
"...................................................................................................................................................",
"...................................................................................................................................................",
"...................................................................................................................................................",
"...................................................................................................................................................",
"...................................................................................................................................................",
"...................................................................................................................................................",
"...................................................................................................................................................",
"...................................................................................................................................................",
"...................................................................................................................................................",
"...................................................................................................................................................",
"...................................................................................................................................................",
"...................................................................................................................................................",
"...................................................................................................................................................",
"..................................................................................................................................................."
};
