/* XPM */
static const char *driver_xpm[] = {
/* width height num_colors chars_per_pixel */
"    32    32        8            1",
/* colors */
". c #000000",
"# c #7f7f7f",
"a c #808000",
"b c #bfbfbf",
"c c None",
"d c #ff0000",
"e c #ffff00",
"f c #ffffff",
/* pixels */
"................................",
"bbbbbbbbbbbbbbbbbbbbbbbbbbbbbbbb",
"...............b................",
"cccccccccccccc.b.ccccccccccccccc",
"cccccccccccccc.b.ccccccccccccccc",
"cccccccccccccc.b.ccccccccccccccc",
"ccccccccccccc..a..cccccccccccccc",
"ccccccccccccc.eee.cccccccccccccc",
"ccccccccc.............cccccccccc",
"cccccccc.fffffffffffff.ccccccccc",
"cccccccc.fffffffffffff.ccccccccc",
"cccccccc.fffffffffffff.ccccccccc",
"cccccccc.fffffffffffff.ccccccccc",
"cccccccc.fffffffffffff.ccccccccc",
"cccccccc...............ccccccccc",
"cccccccc..###########..ccccccccc",
"ccccccccc.fffffffffff.cccccccccc",
"ccccccccc.fffffdfffff.cccccccccc",
"ccccccccc.ffffdddffff.cccccccccc",
"ccccccccc.fffdddddfff.cccccccccc",
"ccccccccc.ffffdddffff.cccccccccc",
"ccccccccc.ffffdddffff.cccccccccc",
"ccccccccc.fffffffffff.cccccccccc",
"ccccccccc.............cccccccccc",
"cccccccccc....eee....ccccccccccc",
"ccccccccccccc..a..cccccccccccccc",
"cccccccccccccc.b.ccccccccccccccc",
"cccccccccccccc.b.ccccccccccccccc",
"cccccccccccccc.b.ccccccccccccccc",
"cccccccccccccc.b.ccccccccccccccc",
"cccccccccccccc.b.ccccccccccccccc",
"cccccccccccccc.b.ccccccccccccccc"
};
