/* XPM */
static const char *person_xpm[] = {
/* width height num_colors chars_per_pixel */
"    32    32        7            1",
/* colors */
"d c None",
". c #000000",
"# c #00007f",
"a c #0000ff",
"b c #00ffff",
"c c #7f7f7f",
"e c #ffffff",
/* pixels */
"dddddddddddddddddddddddddddddddd",
"dddddddddddddcc.c.c.c.ccdddddddd",
"dddddddddddc.c.c.c.c.c.c.ddddddd",
"ddddddddddc.c.c.c.c.c.c.c.dddddd",
"dddddddddc.c.c.c.c.c.c.c...ddddd",
"ddddddddd.c.c.c.c.c.c.c.c...dddd",
"ddddddddcc.c.c.c.c.c.c......dddd",
"dddddddcc.c.c.c.c.c.c.......dddd",
"dddddddc.c.c.c.c.c.c..eee..cdddd",
"ddddddc.c.c.c.c.c.c..eeee..ddddd",
"ddddddcc.c.c.c......eeeee.dddddd",
"ddddddc.c.c.c..cc..eeeccc.dddddd",
"ddddddcc.c.c..ceeeeeeec.ce.ddddd",
"ddddddc.c.c.c.eeeeeeeeeeee.ddddd",
"ddddddcc.c.c..eeeeeeeeeeee.ddddd",
"ddddddc.c.c.c.eeeeeeeeeeeee.dddd",
"ddddddcc.c.c.c.eeeeeeeeee..ddddd",
"ddddddd.c.c.c...eeeeeeeee.dddddd",
"dddddddc.c.c...eeeeeeeeee.dddddd",
"ddddddddc.c.c.eeeeeeeeeee.dddddd",
"dddddddddc.c..eeeeeeeeeee.dddddd",
"ddddddddddc..ceeec.c.c...ddddddd",
"ddddddddddccceeeeeec.ddddddddddd",
"dddddddd##beeeeeeeec.ddddddddddd",
"ddddddd#bb#eeeeeeeec.ddddddddddd",
"dddddd#bbab#eeeeeeec...ddddddddd",
"ddddd#bbabab##eeeeec..#..ddddddd",
"dddddd##bababa###eec.###..dddddd",
"dddddddd#babababa####a#a#..ddddd",
"ddddddddd###bababab###a#a#..dddd",
"dddddddddddd###babab#####...dddd",
"ddddddddddddddd#########dddddddd"
};
