/* XPM */
static char*energy[]={
"32 32 114 2",
".I c #316ba5",
"#J c #10398c",
".q c #4a8c73",
"#y c #ad8421",
"#R c #313108",
".N c #fff75a",
".9 c #295a6b",
".5 c #debd4a",
".J c #427b4a",
"#x c #f7de29",
".e c #4a7bb5",
"#O c #a59c4a",
"#m c #214a94",
".U c #294a94",
".V c #214aa5",
"#o c #396b73",
".E c #52844a",
"#F c #847331",
".W c #2952ad",
".a c #5284c6",
"#t c #e7d66b",
".m c #4a8c63",
".G c #ffef42",
"#v c #524a18",
".w c #63ad31",
".l c #52945a",
"#s c #10217b",
"#C c #5a6b73",
"#g c #b59410",
"#I c #ad9421",
"#V c #08319c",
".H c #637310",
"#. c #7b8c52",
"#B c #10319c",
"#N c #184a84",
"#n c #f7e773",
".M c #316b63",
"#U c #213131",
".6 c #e7d639",
"#q c #ffef7b",
".O c #ffef8c",
".X c #215aa5",
".C c #528c42",
".D c #529439",
".B c #4a944a",
"#S c #211800",
".P c #315aa5",
"#u c #ffe752",
"#k c #c6bd52",
".# c #4273b5",
".4 c #fff773",
".L c #295a84",
".k c #427bbd",
"#P c #184294",
"#Q c #949cce",
"#f c #214294",
"#A c #5a73b5",
"#a c #296373",
".1 c #ffde31",
"#e c #080808",
"#l c #cead21",
".F c #428452",
".T c #398463",
".g c #4aa531",
".b c #4a84bd",
".Q c #ffe731",
".x c #428463",
"#G c #101818",
".A c #396b8c",
".p c #5aa531",
"#M c #6b7b63",
".0 c #d6bd31",
"#c c #a58c10",
".c c #63b552",
"#j c #7b6308",
"#K c #214284",
"#T c #ffde21",
"#H c #294a7b",
".8 c #296b6b",
"#b c #dece4a",
"#L c #001873",
"#w c #524208",
".n c #5aad29",
".y c #397b7b",
".s c #317b8c",
".t c #427b7b",
"#i c #08297b",
"## c #184a5a",
"Qt c None",
"#h c #c6ad4a",
"#D c #083194",
".z c #3163ad",
".j c #42848c",
"#p c #183194",
".r c #396bb5",
"#d c #ffe76b",
".R c #103931",
"#z c #295273",
".3 c #317352",
".K c #317b5a",
".d c #528c94",
"#E c #fff77b",
".Y c #427352",
".Z c #397363",
"#r c #fff78c",
".7 c #18429c",
".o c #4a9c39",
".S c #bdad29",
".2 c #ffde39",
".v c #529c39",
".f c #5ab521",
".h c #63b521",
".u c #5a9c4a",
".i c #42845a",
"QtQtQtQtQtQtQtQtQtQtQtQtQtQtQtQtQtQtQtQtQtQtQtQtQtQtQtQtQtQtQtQt",
"QtQtQtQtQtQtQtQtQtQtQtQtQtQtQtQtQtQtQtQtQtQtQtQtQtQtQtQtQtQtQtQt",
"QtQtQtQtQtQtQtQtQtQtQtQtQtQtQtQtQtQtQtQtQtQtQtQtQtQtQtQtQtQtQtQt",
"QtQtQtQtQtQtQtQtQtQtQtQtQtQtQtQtQtQtQtQtQtQtQtQtQtQtQtQtQtQtQtQt",
"QtQtQtQtQtQtQtQtQtQtQtQtQtQtQtQtQtQtQtQtQtQtQtQtQtQtQtQtQtQtQtQt",
"QtQtQtQtQtQtQtQtQtQtQtQtQtQtQtQtQtQtQtQtQtQtQtQtQtQtQtQtQtQtQtQt",
"QtQtQtQtQtQtQtQtQtQtQtQtQtQtQtQtQtQtQtQtQtQtQtQtQtQtQtQtQtQtQtQt",
"QtQtQtQtQtQtQtQtQtQtQtQtQtQtQtQtQtQtQtQtQtQtQtQtQtQtQtQtQtQtQtQt",
"QtQtQtQtQtQtQtQtQtQtQtQtQtQtQtQtQtQtQtQtQtQtQtQtQtQtQtQtQtQtQtQt",
"QtQtQtQtQtQtQtQtQtQtQt.#.a.b.c.d.e.e.e.b.e.bQtQtQtQtQtQtQtQtQtQt",
"QtQtQtQtQtQtQtQtQt.#.#.f.f.g.h.i.#.#.#.a.j.f.a.kQtQtQtQtQtQtQtQt",
"QtQtQtQtQtQtQt.l.m.n.o.p.p.q.p.r.p.p.n.g.p.p.p.p.nQtQtQtQtQtQtQt",
"QtQtQtQtQtQt.s.t.u.v.g.j.w.r.#.j.x.v.v.v.v.v.v.v.u.y.vQtQtQtQtQt",
"QtQtQtQtQt.z.A.B.o.C.D.E.B.#.z.B.o.o.C.F.B.E.B.G.H.o.B.IQtQtQtQt",
"QtQtQtQt.r.r.B.J.B.F.K.z.r.#.r.L.M.K.J.E.B.F.F.N.O.B.z.P.zQtQtQt",
"QtQtQt.z.z.P.i.F.P.P.P.z.z.z.j.i.i.i.i.E.F.J.Q.R.S.T.z.P.z.UQtQt",
"QtQtQt.V.P.W.X.Y.W.P.W.P.V.P.Z.i.T.i.0.1.2.N.N.P.3.4.N.Q.5.6QtQt",
"QtQt.U.P.U.7.4.S.8.9.L.U.7.U.M.M#..Z##.M.X.W#a#b#c.X.z.W#d#e#fQt",
"QtQt.U.W.W#g#h#i#a.M.M.O.V#d#j.0#d#k#l.4#m#n.W.U#o.M#p#q.W.U.UQt",
"Qt#f.7.W#r.5#s#q#t.s#u#v#u#w#x#u#y#z.N.O.7.G.W.7.W.V.O.V.U.U.7#A",
"Qt.U#B#C#q#D#E#n.V#u.4.5#F#p#B.2.U.L#d#G.U.0.V.V.V#H.4.L.7.7.7.V",
"Qt.7.7#f.2#I.7#J.7#K.L#f.7.7.O#E.7.Q.2.7.U#L#M#q#n#N#O.L#P.7#p#p",
"#Q#p#p#B#B#B.7#p#B#J#N#p#B#p.Q#B#B#R#S#p.G.4#S#B#B.G#T#U#p#N#p#p",
"#V#B#B#P#D.7.7#P.7#B#N#B#V#B#V.7#B.4#B#B#r#V.7#B.7.7#f.G#B#B#B#B",
"#D#p#D#J#D#J#p#J#p#D#p#D#J#D#D#p#p#p#p#D#D#D#J#D#J#p#p#p#D#p#D#J",
"QtQtQtQtQtQtQtQtQtQtQtQtQtQtQtQtQtQtQtQtQtQtQtQtQtQtQtQtQtQtQtQt",
"QtQtQtQtQtQtQtQtQtQtQtQtQtQtQtQtQtQtQtQtQtQtQtQtQtQtQtQtQtQtQtQt",
"QtQtQtQtQtQtQtQtQtQtQtQtQtQtQtQtQtQtQtQtQtQtQtQtQtQtQtQtQtQtQtQt",
"QtQtQtQtQtQtQtQtQtQtQtQtQtQtQtQtQtQtQtQtQtQtQtQtQtQtQtQtQtQtQtQt",
"QtQtQtQtQtQtQtQtQtQtQtQtQtQtQtQtQtQtQtQtQtQtQtQtQtQtQtQtQtQtQtQt",
"QtQtQtQtQtQtQtQtQtQtQtQtQtQtQtQtQtQtQtQtQtQtQtQtQtQtQtQtQtQtQtQt",
"QtQtQtQtQtQtQtQtQtQtQtQtQtQtQtQtQtQtQtQtQtQtQtQtQtQtQtQtQtQtQtQt"};
