/* XPM */
static char * pavement_xpm[] = {
"8 7 2 1",
".   	c None",
"#	c.#FFFFFF",
".#.#...#",
"#.##..#.",
"#.#.....",
"####.###",
"#.##..#.",
".#.#...#",
"#.##..#."};










