/* XPM */
static char * rattan_xpm[] = {
"8 8 2 1",
".   	c None",
"# 	c #FFFFFF",
".....###",
"#...#.##",
"##.###.#",
"#.###...",
".###....",
"###.#...",
"##.###.#",
"#...###."};









